<svg width="51" height="60" viewBox="0 0 51 60" fill="none" xmlns="http://www.w3.org/2000/svg">
<g filter="url(#filter0_dd_301_2184)">
<rect x="13" y="10" width="25" height="25" rx="12.5" fill="white"/>
<rect x="12.5" y="9.5" width="26" height="26" rx="13" stroke="#667085"/>
<path d="M29.6654 27.1875V26.1458C29.6654 25.5933 29.4459 25.0634 29.0552 24.6727C28.6645 24.282 28.1346 24.0625 27.582 24.0625H23.4154C22.8628 24.0625 22.3329 24.282 21.9422 24.6727C21.5515 25.0634 21.332 25.5933 21.332 26.1458V27.1875M27.582 19.8958C27.582 21.0464 26.6493 21.9792 25.4987 21.9792C24.3481 21.9792 23.4154 21.0464 23.4154 19.8958C23.4154 18.7452 24.3481 17.8125 25.4987 17.8125C26.6493 17.8125 27.582 18.7452 27.582 19.8958Z" stroke="#667085" stroke-linecap="round" stroke-linejoin="round"/>
</g>
<defs>
<filter id="filter0_dd_301_2184" x="0" y="9" width="51" height="51" filterUnits="userSpaceOnUse" color-interpolation-filters="sRGB">
<feFlood flood-opacity="0" result="BackgroundImageFix"/>
<feColorMatrix in="SourceAlpha" type="matrix" values="0 0 0 0 0 0 0 0 0 0 0 0 0 0 0 0 0 0 127 0" result="hardAlpha"/>
<feMorphology radius="2" operator="erode" in="SourceAlpha" result="effect1_dropShadow_301_2184"/>
<feOffset dy="4"/>
<feGaussianBlur stdDeviation="3"/>
<feColorMatrix type="matrix" values="0 0 0 0 0.0627451 0 0 0 0 0.0941176 0 0 0 0 0.156863 0 0 0 0.03 0"/>
<feBlend mode="normal" in2="BackgroundImageFix" result="effect1_dropShadow_301_2184"/>
<feColorMatrix in="SourceAlpha" type="matrix" values="0 0 0 0 0 0 0 0 0 0 0 0 0 0 0 0 0 0 127 0" result="hardAlpha"/>
<feMorphology radius="4" operator="erode" in="SourceAlpha" result="effect2_dropShadow_301_2184"/>
<feOffset dy="12"/>
<feGaussianBlur stdDeviation="8"/>
<feColorMatrix type="matrix" values="0 0 0 0 0.0627451 0 0 0 0 0.0941176 0 0 0 0 0.156863 0 0 0 0.08 0"/>
<feBlend mode="normal" in2="effect1_dropShadow_301_2184" result="effect2_dropShadow_301_2184"/>
<feBlend mode="normal" in="SourceGraphic" in2="effect2_dropShadow_301_2184" result="shape"/>
</filter>
</defs>
</svg>
