<svg width="56" height="56" viewBox="0 0 56 56" fill="none" xmlns="http://www.w3.org/2000/svg">
<rect x="4" y="4" width="48" height="48" rx="24" fill="#4CAF50" fill-opacity="0.2"/>
<rect x="4" y="4" width="48" height="48" rx="24" stroke="#4CAF50" stroke-opacity="0.1" stroke-width="8"/>
<path d="M35.176 18.1648C35.1209 17.8935 34.9737 17.6497 34.7594 17.4745C34.5451 17.2993 34.2768 17.2036 34 17.2036C33.7232 17.2036 33.4549 17.2993 33.2406 17.4745C33.0263 17.6497 32.8791 17.8935 32.824 18.1648L32.536 19.5952C32.4897 19.8276 32.3756 20.041 32.2082 20.2086C32.0408 20.3763 31.8275 20.4906 31.5952 20.5372L30.1648 20.8228C29.8922 20.8767 29.6468 21.0235 29.4704 21.2382C29.294 21.4529 29.1976 21.7222 29.1976 22C29.1976 22.2779 29.294 22.5471 29.4704 22.7618C29.6468 22.9765 29.8922 23.1233 30.1648 23.1772L31.5952 23.4628C31.8277 23.5092 32.0413 23.6234 32.2089 23.7911C32.3766 23.9587 32.4908 24.1723 32.5372 24.4048L32.8228 25.8352C32.8767 26.1078 33.0235 26.3532 33.2382 26.5296C33.4529 26.706 33.7221 26.8024 34 26.8024C34.2779 26.8024 34.5471 26.706 34.7618 26.5296C34.9765 26.3532 35.1233 26.1078 35.1772 25.8352L35.4628 24.4048C35.5092 24.1723 35.6234 23.9587 35.7911 23.7911C35.9587 23.6234 36.1723 23.5092 36.4048 23.4628L37.8352 23.1772C38.1078 23.1233 38.3532 22.9765 38.5296 22.7618C38.706 22.5471 38.8024 22.2779 38.8024 22C38.8024 21.7222 38.706 21.4529 38.5296 21.2382C38.3532 21.0235 38.1078 20.8767 37.8352 20.8228L36.4048 20.5372C36.1723 20.4908 35.9587 20.3766 35.7911 20.2089C35.6234 20.0413 35.5092 19.8277 35.4628 19.5952L35.176 18.1648ZM24.3388 22.8208C24.2593 22.5816 24.1065 22.3735 23.9021 22.226C23.6977 22.0785 23.4521 21.9991 23.2 21.9991C22.9479 21.9991 22.7023 22.0785 22.4979 22.226C22.2934 22.3735 22.1407 22.5816 22.0612 22.8208L21.2416 25.282C21.1827 25.4589 21.0834 25.6197 20.9515 25.7516C20.8197 25.8834 20.6589 25.9827 20.482 26.0416L18.0208 26.8612C17.7816 26.9407 17.5735 27.0935 17.426 27.2979C17.2785 27.5023 17.1991 27.748 17.1991 28C17.1991 28.2521 17.2785 28.4977 17.426 28.7022C17.5735 28.9066 17.7816 29.0593 18.0208 29.1388L20.482 29.9596C20.6588 30.0184 20.8195 30.1175 20.9513 30.2492C21.0832 30.3808 21.1825 30.5413 21.2416 30.718L22.0612 33.1792C22.1407 33.4184 22.2934 33.6265 22.4979 33.774C22.7023 33.9215 22.9479 34.0009 23.2 34.0009C23.4521 34.0009 23.6977 33.9215 23.9021 33.774C24.1065 33.6265 24.2593 33.4184 24.3388 33.1792L25.1584 30.718C25.2173 30.5411 25.3166 30.3803 25.4485 30.2485C25.5803 30.1166 25.7411 30.0173 25.918 29.9584L28.3792 29.1388C28.6184 29.0593 28.8265 28.9066 28.974 28.7022C29.1215 28.4977 29.2009 28.2521 29.2009 28C29.2009 27.748 29.1215 27.5023 28.974 27.2979C28.8265 27.0935 28.6184 26.9407 28.3792 26.8612L25.918 26.0416C25.7411 25.9827 25.5803 25.8834 25.4485 25.7516C25.3166 25.6197 25.2173 25.4589 25.1584 25.282L24.3388 22.8208ZM32.7388 32.4208C32.6593 32.1816 32.5065 31.9735 32.3021 31.826C32.0977 31.6785 31.8521 31.5991 31.6 31.5991C31.3479 31.5991 31.1023 31.6785 30.8979 31.826C30.6934 31.9735 30.5407 32.1816 30.4612 32.4208L30.2404 33.082C30.1816 33.2588 30.0825 33.4195 29.9509 33.5513C29.8192 33.6832 29.6587 33.7826 29.482 33.8416L28.8208 34.0612C28.5816 34.1407 28.3735 34.2935 28.226 34.4979C28.0785 34.7023 27.9991 34.948 27.9991 35.2C27.9991 35.4521 28.0785 35.6977 28.226 35.9022C28.3735 36.1066 28.5816 36.2593 28.8208 36.3388L29.482 36.5584C29.6589 36.6173 29.8197 36.7166 29.9515 36.8485C30.0834 36.9803 30.1827 37.1411 30.2416 37.318L30.4612 37.9792C30.5407 38.2184 30.6934 38.4265 30.8979 38.574C31.1023 38.7215 31.3479 38.8009 31.6 38.8009C31.8521 38.8009 32.0977 38.7215 32.3021 38.574C32.5065 38.4265 32.6593 38.2184 32.7388 37.9792L32.9596 37.318C33.0184 37.1412 33.1175 36.9805 33.2491 36.8487C33.3808 36.7168 33.5413 36.6175 33.718 36.5584L34.3792 36.3388C34.6184 36.2593 34.8265 36.1066 34.974 35.9022C35.1215 35.6977 35.2009 35.4521 35.2009 35.2C35.2009 34.948 35.1215 34.7023 34.974 34.4979C34.8265 34.2935 34.6184 34.1407 34.3792 34.0612L33.718 33.8404C33.5412 33.7816 33.3805 33.6825 33.2487 33.5509C33.1168 33.4192 33.0174 33.2587 32.9584 33.082L32.7388 32.4208Z" fill="#4CAF50"/>
</svg>
