<svg width="12" height="14" viewBox="0 0 12 14" fill="none" xmlns="http://www.w3.org/2000/svg">
<path d="M0.332031 1.16683C0.332031 0.945816 0.419829 0.733854 0.576109 0.577574C0.732389 0.421294 0.944351 0.333496 1.16536 0.333496H11.1654C11.3864 0.333496 11.5983 0.421294 11.7546 0.577574C11.9109 0.733854 11.9987 0.945816 11.9987 1.16683V3.66683C11.9987 3.88784 11.9109 4.0998 11.7546 4.25608C11.5983 4.41236 11.3864 4.50016 11.1654 4.50016C10.9444 4.50016 10.7324 4.41236 10.5761 4.25608C10.4198 4.0998 10.332 3.88784 10.332 3.66683V2.00016H6.9987V12.0002H7.83203C8.05305 12.0002 8.26501 12.088 8.42129 12.2442C8.57757 12.4005 8.66537 12.6125 8.66537 12.8335C8.66537 13.0545 8.57757 13.2665 8.42129 13.4228C8.26501 13.579 8.05305 13.6668 7.83203 13.6668H4.4987C4.27768 13.6668 4.06572 13.579 3.90944 13.4228C3.75316 13.2665 3.66536 13.0545 3.66536 12.8335C3.66536 12.6125 3.75316 12.4005 3.90944 12.2442C4.06572 12.088 4.27768 12.0002 4.4987 12.0002H5.33203V2.00016H1.9987V3.66683C1.9987 3.88784 1.9109 4.0998 1.75462 4.25608C1.59834 4.41236 1.38638 4.50016 1.16536 4.50016C0.944351 4.50016 0.732389 4.41236 0.576109 4.25608C0.419829 4.0998 0.332031 3.88784 0.332031 3.66683V1.16683Z" fill="#667085"/>
</svg>
