<svg width="25" height="24" viewBox="0 0 25 24" fill="none" xmlns="http://www.w3.org/2000/svg">
<path d="M17.1666 9.40002L8.16663 4.21002M3.93663 6.96002L12.6666 12.01L21.3966 6.96002M12.6666 22.08V12M21.6666 16V8.00002C21.6663 7.6493 21.5737 7.30483 21.3982 7.00119C21.2226 6.69754 20.9704 6.44539 20.6666 6.27002L13.6666 2.27002C13.3626 2.09449 13.0177 2.00208 12.6666 2.00208C12.3156 2.00208 11.9707 2.09449 11.6666 2.27002L4.66663 6.27002C4.36289 6.44539 4.11061 6.69754 3.93509 7.00119C3.75957 7.30483 3.66699 7.6493 3.66663 8.00002V16C3.66699 16.3508 3.75957 16.6952 3.93509 16.9989C4.11061 17.3025 4.36289 17.5547 4.66663 17.73L11.6666 21.73C11.9707 21.9056 12.3156 21.998 12.6666 21.998C13.0177 21.998 13.3626 21.9056 13.6666 21.73L20.6666 17.73C20.9704 17.5547 21.2226 17.3025 21.3982 16.9989C21.5737 16.6952 21.6663 16.3508 21.6666 16Z" stroke="#4285F4" stroke-width="2" stroke-linecap="round" stroke-linejoin="round"/>
</svg>
