<svg width="49" height="33" viewBox="0 0 49 33" fill="none" xmlns="http://www.w3.org/2000/svg">
<path d="M39.5063 12.4575C38.1179 5.34187 31.9317 0 24.5 0C18.5996 0 13.475 3.3825 10.9229 8.3325C4.7775 8.9925 0 14.2519 0 20.625C0 27.4519 5.49208 33 12.25 33H38.7917C44.4267 33 49 28.38 49 22.6875C49 17.2425 44.8146 12.8287 39.5063 12.4575ZM38.7917 28.875H12.25C7.73792 28.875 4.08333 25.1831 4.08333 20.625C4.08333 16.3969 7.20708 12.87 11.3517 12.4369L13.5363 12.21L14.5571 10.2506C16.4967 6.47625 20.2942 4.125 24.5 4.125C29.8492 4.125 34.4633 7.96125 35.5046 13.2619L36.1171 16.3556L39.2408 16.5825C42.4258 16.7887 44.9167 19.4906 44.9167 22.6875C44.9167 26.0906 42.1604 28.875 38.7917 28.875ZM16.3333 18.5625H21.5396V24.75H27.4604V18.5625H32.6667L24.5 10.3125L16.3333 18.5625Z" fill="#4285F4"/>
</svg>
