<svg width="21" height="21" viewBox="0 0 21 21" fill="none" xmlns="http://www.w3.org/2000/svg">
<path d="M0.320312 20.0515L1.72578 14.9163C0.532335 12.8425 0.129256 10.4066 0.590998 8.05856C1.05274 5.71053 2.34811 3.609 4.23783 2.14215C6.12756 0.675292 8.48398 -0.0577915 10.8718 0.0783037C13.2597 0.214399 15.5177 1.21048 17.2287 2.88256C18.9397 4.55464 19.9882 6.78975 20.1804 9.17505C20.3727 11.5604 19.6958 13.9347 18.2747 15.8595C16.8536 17.7843 14.7843 19.1296 12.4491 19.6468C10.1139 20.164 7.67056 19.8182 5.57031 18.6733M2.69922 17.6999L5.81641 16.8796C7.53189 17.9941 9.60075 18.4303 11.6202 18.1032C13.6396 17.7761 15.465 16.7091 16.7409 15.1101C18.0169 13.511 18.652 11.4944 18.5228 9.45273C18.3935 7.41109 17.509 5.49064 16.0416 4.06531C14.5741 2.63999 12.6287 1.81181 10.5842 1.74204C8.53964 1.67227 6.54232 2.3659 4.98111 3.68788C3.4199 5.00986 2.40657 6.86555 2.13842 8.89362C1.87026 10.9217 2.36649 12.977 3.53047 14.6593M8.61641 7.71397C8.72578 7.98741 8.61641 8.26085 8.01484 8.92803C7.68672 9.25616 7.79609 9.36553 8.37578 10.1858C8.95547 11.0062 9.90703 11.7718 10.782 12.1819C11.657 12.5921 11.6023 12.5648 11.9688 12.1273C12.7891 11.1976 12.5703 10.9788 13.3906 11.3507L14.8672 12.0616C15.3047 12.2804 15.3266 12.2804 15.332 12.5538C15.3375 12.8273 15.2391 13.5382 14.9492 13.8444C14.6594 14.1507 13.582 15.2007 11.668 14.5007C9.75391 13.8007 8.44141 13.2429 6.25391 10.2898C4.06641 7.33663 6.16641 5.58663 6.45078 5.47725C6.73516 5.36788 6.83359 5.39522 7.38047 5.40616C7.5263 5.40616 7.65391 5.4973 7.76328 5.6796" fill="#344054"/>
</svg>
